<?xml version="1.0" encoding="utf-8"?>
<!-- Generator: Adobe Illustrator 28.0.0, SVG Export Plug-In . SVG Version: 6.00 Build 0)  -->
<svg version="1.1" id="Layer_1" xmlns="http://www.w3.org/2000/svg" xmlns:xlink="http://www.w3.org/1999/xlink" x="0px" y="0px"
	 viewBox="0 0 600 113.3" style="enable-background:new 0 0 600 113.3;" xml:space="preserve">
<g>
	<path d="M353.98,41.46c-1.67-6.6-6.34-12.15-12.59-14.79c-1.67-0.7-3.34-1.23-5.1-1.41c-1.5-0.18-2.99-0.26-4.49-0.26
		c-5.28,0-10.56,0-15.84,0l0,0c-3.87,0-7.75,0-11.62,0c-2.38,0-4.75,0-7.13,0.18c-1.14,0.09-2.29,0.18-3.34,0.44
		c-4.58,1.14-8.36,3.52-11.44,7.13c-2.2,2.64-3.7,5.54-4.49,8.89c-0.44,1.67-0.53,3.34-0.53,5.1c0,3.26-0.09,6.51-0.09,9.77
		c0,0.26,0,0.53,0,0.79l0,0c0,17.43,0,34.94,0,52.37c0,0.44,0,0.88,0,1.41c0.09,1.58,0.79,2.38,2.29,2.2
		c1.58-0.09,3.17-0.26,4.66-0.79c5.28-1.85,8.71-6.78,8.71-12.5c0.09-6.34,0-12.67,0-19.01c0-0.53,0-1.06,0-1.76l0,0
		c0.53,0.18,0.88,0.26,1.14,0.44c3.7,1.67,7.57,2.46,11.62,2.46c7.92,0,14.26,0.09,22.18,0.09c2.02,0,4.05-0.09,6.16-0.09
		c1.14,0,2.2-0.18,3.34-0.35c2.02-0.35,3.96-1.06,5.81-2.11c4.66-2.55,8.01-6.25,10.03-11.18c0.62-1.5,1.06-3.08,1.23-4.66
		c0.18-1.5,0.26-2.99,0.26-4.49c0-2.9,0-5.72,0-8.63c0-1.94,0-3.87-0.18-5.81C354.34,43.75,354.25,42.6,353.98,41.46z M338.93,59.41
		c0,1.14-0.09,2.29-0.35,3.43c-0.35,1.67-1.14,3.17-2.29,4.4c-1.06,1.14-2.29,2.02-3.78,2.55c-0.79,0.26-1.67,0.44-2.55,0.53
		c-1.85,0.18-3.7,0.18-5.54,0.18c-2.82,0-5.63,0-8.45,0l0,0c-3.52,0-7.04,0-10.47,0c-1.23,0-2.38-0.09-3.61-0.18
		c-3.7-0.26-6.34-2.2-8.01-5.46c-0.44-0.88-0.62-1.76-0.7-2.64c-0.26-1.76-0.26-3.61-0.26-5.37c0-2.64,0-5.19,0-7.83
		c0-1.32,0.09-2.55,0.26-3.87c0.35-2.99,1.85-5.19,4.31-6.78c1.06-0.7,2.29-1.14,3.52-1.32c1.06-0.18,2.2-0.26,3.26-0.26
		c3.08,0,6.16,0,9.24-0.09c3.87,0,7.75,0,11.71,0c1.32,0,2.73,0.09,4.05,0.09c1.06,0.09,2.11,0.18,3.17,0.53
		c1.76,0.53,3.08,1.58,4.31,2.99c1.23,1.41,1.94,3.17,2.11,5.02c0.18,1.67,0.26,3.43,0.26,5.1
		C338.93,53.43,338.93,56.42,338.93,59.41z"/>
	<path d="M179.28,24.65c-3.7,0.18-6.86,1.58-9.33,4.31c-2.29,2.55-3.43,5.63-3.43,9.07c0,9.15,0,18.39,0,27.55c0,0.44,0,0.97,0,1.41
		c-0.18,0.97-0.79,1.23-1.5,0.7c-0.26-0.18-0.53-0.44-0.79-0.7c-11.09-10.83-22.27-21.65-33.36-32.48
		c-2.55-2.46-5.02-4.93-7.57-7.39c-1.58-1.58-3.52-2.46-5.81-2.46c-4.49,0-8.89-0.09-13.29,0.18c-4.05,0.18-7.13,3.17-7.83,7.13
		c-0.18,1.32-0.26,2.64-0.26,3.96c0,10.03,0,20.15,0,30.19c0,0.62,0.18,1.41-0.62,1.76c-0.79,0.35-1.23-0.35-1.67-0.79
		C82.91,56.51,72.08,45.95,61.17,35.3c-2.73-2.64-5.46-5.37-8.27-8.01c-1.5-1.5-3.26-2.55-5.37-2.55
		c-4.66-0.09-9.42-0.09-14.08,0.09c-3.96,0.18-6.95,3.08-7.66,6.95c-0.18,1.23-0.26,2.46-0.26,3.7c0,14.96,0,29.92,0,44.89
		c0,0.18,0,0.26,0,0.44c0.09,1.06,0.18,1.32,1.23,1.32c3.08,0,6.16,0.09,9.15-0.09c2.64-0.09,4.66-2.02,5.02-4.75
		c0.18-1.14,0.18-2.38,0.18-3.52c0-11.35,0-22.71,0-33.97c0-0.53,0-1.06,0-1.5c0.09-0.97,0.7-1.23,1.5-0.7
		c0.35,0.26,0.62,0.53,0.88,0.79c2.11,2.11,4.31,4.22,6.42,6.34c11.71,11.53,23.41,22.97,35.12,34.5c2.02,1.94,4.31,3.08,7.13,2.99
		c2.11,0,4.22,0,6.25,0c2.64,0,5.19,0,7.83-0.18c2.73-0.18,4.75-2.02,5.19-4.75c0.18-1.14,0.18-2.2,0.18-3.34
		c0-11.35,0-22.79,0-34.15c0-0.53,0-1.14,0.09-1.67c0.09-0.79,0.7-1.06,1.32-0.62c0.44,0.26,0.79,0.62,1.14,1.06
		c4.84,4.75,9.77,9.59,14.61,14.43c8.8,8.63,17.69,17.34,26.4,26.05c2.29,2.29,4.84,3.43,8.1,3.34c1.76-0.09,3.61,0,5.37,0
		c2.64,0,5.19,0,7.83-0.18c3.08-0.18,5.1-2.02,5.54-5.1c0.09-0.79,0.09-1.67,0.09-2.46c0-7.66,0-15.31,0-22.97l0,0
		c0-8.1,0-16.11,0-24.2C182.18,25.18,181.48,24.47,179.28,24.65z"/>
	<path d="M598.04,57.39c-3.17-6.07-8.36-9.15-15.23-9.15c-11.79-0.09-23.59,0-35.38,0c-0.7,0-1.41,0-2.11-0.09
		c-2.73-0.44-4.66-2.73-4.66-5.46c0-2.64,1.85-4.93,4.49-5.46c0.7-0.18,1.41-0.18,2.11-0.18c7.92,0,15.75,0,23.68,0
		c5.1,0,10.21,0.09,15.4,0c5.1-0.09,9.33-3.78,10.12-8.8c0.53-2.9,0.09-3.43-2.82-3.43c-16.72,0-33.53,0-50.25,0
		c-0.35,0-0.7,0-1.06,0c-6.78,0.26-11.88,3.43-14.96,9.42c-2.9,5.81-2.55,11.79,1.14,17.16c3.34,4.93,8.18,7.39,14.26,7.39
		c12.32,0,24.56,0,36.88,0c0.79,0,1.58,0,2.29,0.18c2.46,0.44,4.22,2.46,4.4,5.02c0.18,2.55-1.41,4.93-3.87,5.63
		c-0.79,0.26-1.58,0.26-2.46,0.26c-5.72,0-11.44,0-17.25,0c-8.8,0-17.51,0-26.32,0c-2.82,0-5.37,0.79-7.48,2.73
		c-2.2,1.94-3.34,4.49-3.52,7.39c-0.09,1.5,0.44,2.02,1.94,2.11c0.35,0,0.7,0,1.06,0c9.15,0,18.22,0,27.37,0c8.98,0,17.95,0,26.93,0
		c0.09,0,0.18,0,0.26,0C595.84,81.95,603.94,68.57,598.04,57.39z"/>
	<path d="M488.38,73.76c-1.58,0-3.17,0-4.75,0c-2.99-0.09-5.9,0-8.89-0.26c-4.4-0.44-7.75-3.78-8.27-8.19
		c-0.18-1.32-0.26-2.73-0.26-4.14c0-9.42,0-18.92,0-28.34c0,0,0,0,0.09,0c0-7.22,0-14.52,0-21.74c0-2.9,0-5.81,0-8.71
		c0-1.67-0.79-2.46-2.46-2.38c-1.06,0-2.11,0.18-3.17,0.44c-5.98,1.5-10.03,6.69-10.03,12.94c0,15.49,0,31.07,0,46.56
		c0,2.38,0.18,4.66,0.26,7.04c0.44,8.54,7.39,14.35,14.35,14.87c7.75,0.53,15.4,0.18,23.15,0.35c1.06,0,1.32-0.18,1.32-1.23
		c0.09-1.94,0.09-3.87,0-5.81C489.7,74.02,489.43,73.85,488.38,73.76z"/>
	<path d="M514.96,26.94c-0.09-1.32-0.79-2.11-2.11-2.11c-1.23,0-2.55,0.18-3.78,0.53c-5.81,1.58-9.77,6.69-9.77,12.76
		c0,13.99,0,28.08,0,42.07c0,0.26,0,0.53,0,0.79c0.09,0.97,0.26,1.14,1.23,1.14c0.35,0,0.7,0,1.06,0c3.7,0,7.39,0,11,0
		c2.29,0,2.29,0,2.38-2.29c0-0.44,0-0.79,0-1.23c0-8.27,0-16.55,0-24.82c0-8.54,0-17.16,0-25.7
		C514.96,27.73,514.96,27.29,514.96,26.94z"/>
	<path d="M15.67,27.55c0-2.2-0.7-2.82-2.9-2.73C5.9,25,0.09,30.81,0,37.76c0,14.26,0,28.43,0,42.69c0,1.5,0.18,1.67,1.67,1.67
		c3.26,0,6.42,0,9.68,0c0.88,0,1.85,0,2.73,0c1.41,0,1.5-0.18,1.58-1.58c0-0.35,0-0.7,0-1.06c0-8.45,0-16.99,0-25.44
		C15.67,45.16,15.67,36.36,15.67,27.55z"/>
	<path d="M440.15,41.46c-1.67-6.6-6.34-12.15-12.59-14.79c-1.67-0.7-3.34-1.23-5.1-1.41c-1.5-0.18-2.99-0.26-4.49-0.26
		c-5.28,0-10.56,0-15.84,0l0,0c-3.87,0-7.75,0-11.62,0c-2.38,0-4.75,0-7.13,0.18c-1.14,0.09-2.29,0.18-3.34,0.44
		c-4.58,1.14-8.36,3.52-11.44,7.13c-2.2,2.64-3.7,5.54-4.49,8.89c-0.44,1.67-0.53,3.34-0.53,5.1c0,3.26-0.09,6.51-0.09,9.77
		c0,2.11,0,4.14,0.18,6.25c0.09,0.97,0.18,1.94,0.44,2.82c0.97,4.05,2.99,7.66,5.98,10.56c3.96,3.78,8.63,5.81,14.08,5.98
		c2.02,0.09,4.14,0.09,6.16,0.09c7.92,0,15.84,0,23.76,0c2.02,0,4.05-0.09,6.16-0.09c1.14,0,2.2-0.18,3.34-0.35
		c2.02-0.35,3.96-1.06,5.81-2.11c4.66-2.55,8.01-6.25,10.03-11.18c0.62-1.5,1.06-3.08,1.23-4.66c0.18-1.5,0.26-2.99,0.26-4.49
		c0-2.9,0-5.72,0-8.63c0-1.94,0-3.87-0.18-5.81C440.59,43.75,440.41,42.6,440.15,41.46z M425.1,59.41c0,1.14-0.09,2.29-0.35,3.43
		c-0.35,1.67-1.14,3.17-2.29,4.4c-1.06,1.14-2.29,2.02-3.78,2.55c-0.79,0.26-1.67,0.44-2.55,0.53c-1.85,0.18-3.7,0.18-5.54,0.18
		c-2.82,0-5.63,0-8.45,0l0,0c-3.52,0-7.04,0-10.47,0c-1.23,0-2.38-0.09-3.61-0.18c-3.7-0.26-6.34-2.2-8.01-5.46
		c-0.44-0.88-0.62-1.76-0.7-2.64c-0.26-1.76-0.26-3.61-0.26-5.37c0-2.64,0-5.19,0-7.83c0-1.32,0.09-2.55,0.26-3.87
		c0.35-2.99,1.85-5.19,4.31-6.78c1.06-0.7,2.29-1.14,3.52-1.32c1.06-0.18,2.2-0.26,3.26-0.26c3.08,0,6.16,0,9.24-0.09
		c3.87,0,7.75,0,11.71,0c1.32,0,2.73,0.09,4.05,0.09c1.06,0.09,2.11,0.18,3.17,0.53c1.76,0.53,3.08,1.58,4.31,2.99
		c1.23,1.41,1.94,3.17,2.11,5.02c0.18,1.67,0.26,3.43,0.26,5.1C425.18,53.43,425.18,56.42,425.1,59.41z"/>
	<path d="M267.73,41.46c-1.67-6.6-6.34-12.15-12.59-14.79c-1.67-0.7-3.34-1.23-5.1-1.41c-1.5-0.18-2.99-0.26-4.49-0.26
		c-5.28,0-10.56,0-15.84,0l0,0c-3.87,0-7.75,0-11.62,0c-2.38,0-4.75,0-7.13,0.18c-1.14,0.09-2.29,0.18-3.34,0.44
		c-4.58,1.14-8.36,3.52-11.44,7.13c-2.2,2.64-3.7,5.54-4.49,8.89c-0.44,1.67-0.53,3.34-0.53,5.1c0,3.26-0.09,6.51-0.09,9.77
		c0,2.11,0,4.14,0.18,6.25c0.09,0.97,0.18,1.94,0.44,2.82c0.97,4.05,2.99,7.66,5.98,10.56c3.96,3.78,8.63,5.81,14.08,5.98
		c2.02,0.09,4.14,0.09,6.16,0.09c7.92,0,15.84,0,23.76,0c2.02,0,4.05-0.09,6.16-0.09c1.14,0,2.2-0.18,3.34-0.35
		c2.02-0.35,3.96-1.06,5.81-2.11c4.66-2.55,8.01-6.25,10.03-11.18c0.62-1.5,1.06-3.08,1.23-4.66c0.18-1.5,0.26-2.99,0.26-4.49
		c0-2.9,0-5.72,0-8.63c0-1.94,0-3.87-0.18-5.81C268.17,43.75,268,42.6,267.73,41.46z M252.68,59.41c0,1.14-0.09,2.29-0.35,3.43
		c-0.35,1.67-1.14,3.17-2.29,4.4c-1.06,1.14-2.29,2.02-3.78,2.55c-0.79,0.26-1.67,0.44-2.55,0.53c-1.85,0.18-3.7,0.18-5.54,0.18
		c-2.82,0-5.63,0-8.45,0l0,0c-3.52,0-7.04,0-10.47,0c-1.23,0-2.38-0.09-3.61-0.18c-3.7-0.26-6.34-2.2-8.01-5.46
		c-0.44-0.88-0.62-1.76-0.7-2.64c-0.26-1.76-0.26-3.61-0.26-5.37c0-2.64,0-5.19,0-7.83c0-1.32,0.09-2.55,0.26-3.87
		c0.35-2.99,1.85-5.19,4.31-6.78c1.06-0.7,2.29-1.14,3.52-1.32c1.06-0.18,2.2-0.26,3.26-0.26c3.08,0,6.16,0,9.24-0.09
		c3.87,0,7.75,0,11.71,0c1.32,0,2.73,0.09,4.05,0.09c1.06,0.09,2.11,0.18,3.17,0.53c1.76,0.53,3.08,1.58,4.31,2.99
		c1.23,1.41,1.94,3.17,2.11,5.02c0.18,1.67,0.26,3.43,0.26,5.1C252.77,53.43,252.68,56.42,252.68,59.41z"/>
</g>
</svg>
